<svg viewBox="0 0 514 514" xmlns="http://www.w3.org/2000/svg" xml:space="preserve" style="fill-rule:evenodd;clip-rule:evenodd;stroke-miterlimit:10">
    <path d="M513 19.23C513 9.169 504.831 1 494.77 1H19.23C9.169 1 1 9.169 1 19.23v475.54C1 504.831 9.169 513 19.23 513h475.54c10.061 0 18.23-8.169 18.23-18.23V19.23Z" style="stroke:#83754e;stroke-width:2"></path>
    <path d="m153.824 461.429-6.153-2.051-7.521 2.85-6.382 8.431-.342 4.444h-2.05v-3.077l7.862-14.244v-7.976l-9.496-16.785-9.117 16.708v7.977l7.863 14.244v3.076h-2.05l-.343-4.443-6.381-8.434-7.521-2.847-6.154 2.051-4.101 5.355-.229 6.268 5.242 5.584 6.495.341 4.56-5.697-3.875.797-2.622-.113-1.253-3.192 1.709-3.418 4.216.114 4.444 2.962 2.279 2.622.258 2.05h-2.992v3.875h3.725l.718 3.534-2.051 2.962-2.278 1.139-3.305-1.025 1.253-3.989-4.443 1.483-1.369 3.76 2.052 4.898 4.557 1.596 3.99-2.963 2.393-4.33 1.253-5.356-.069-1.709h1.892v5.243l-6.495 10.027 7.9 15.012.002.22.056-.109.019.033v-.066l7.901-15.014-6.495-10.027v-5.242h1.892l-.069 1.71 1.253 5.354 2.394 4.33 3.987 2.965 4.56-1.598 2.049-4.898-1.368-3.762-4.442-1.48 1.253 3.988-3.305 1.025-2.279-1.138-2.052-2.963.719-3.533h3.726v-3.875h-2.992l.258-2.051 2.278-2.621 4.444-2.961 4.215-.116 1.711 3.42-1.254 3.192-2.621.113-3.875-.799 4.558 5.698 6.497-.342 5.24-5.584-.227-6.266-4.102-5.357ZM389.896 461.429l-6.154-2.051-7.519 2.85-6.381 8.431-.342 4.444h-2.051v-3.077l7.862-14.244v-7.976l-9.497-16.785-9.117 16.708v7.977l7.864 14.244v3.076h-2.051l-.344-4.443-6.379-8.434-7.521-2.847-6.155 2.051-4.101 5.355-.229 6.268 5.242 5.584 6.495.341 4.56-5.697-3.875.797-2.623-.113-1.252-3.192 1.709-3.418 4.215.114 4.445 2.962 2.28 2.622.257 2.05h-2.992v3.875h3.725l.719 3.534-2.051 2.962-2.278 1.139-3.304-1.025 1.252-3.989-4.444 1.483-1.369 3.76 2.053 4.898 4.557 1.596 3.99-2.963 2.392-4.33 1.252-5.356-.068-1.709h1.893v5.243l-6.497 10.027 7.903 15.014v.218l.058-.107.016.031v-.064l7.902-15.016-6.494-10.027v-5.242h1.895l-.073 1.71 1.252 5.354 2.395 4.33 3.988 2.965 4.559-1.598 2.051-4.898-1.368-3.762-4.445-1.48 1.256 3.988-3.305 1.025-2.281-1.138-2.051-2.963.719-3.533h3.725v-3.875h-2.991l.256-2.051 2.28-2.621 4.445-2.961 4.217-.116 1.707 3.42-1.252 3.192-2.623.113-3.873-.799 4.558 5.698 6.494-.342 5.243-5.584-.229-6.266-4.102-5.357ZM625.969 461.429l-6.155-2.051-7.519 2.85-6.381 8.431-.342 4.444h-2.052v-3.077l7.863-14.244v-7.976l-9.496-16.785-9.117 16.708v7.977l7.863 14.244v3.076h-2.051l-.344-4.443-6.381-8.434-7.519-2.847-6.154 2.051-4.102 5.355-.228 6.268 5.242 5.584 6.494.341 4.56-5.697-3.875.797-2.621-.113-1.254-3.192 1.709-3.418 4.217.114 4.444 2.962 2.279 2.622.258 2.05h-2.993v3.875h3.727l.719 3.534-2.053 2.962-2.279 1.139-3.305-1.025 1.254-3.989-4.443 1.483-1.368 3.76 2.049 4.898 4.559 1.596 3.988-2.963 2.395-4.33 1.252-5.356-.069-1.709h1.893v5.243l-6.496 10.027 7.902 15.014v.218l.059-.107.015.031v-.064l7.903-15.016-6.496-10.027v-5.242h1.894l-.07 1.71 1.254 5.354 2.392 4.33 3.989 2.965 4.558-1.598 2.051-4.898-1.367-3.762-4.446-1.48 1.256 3.988-3.304 1.025-2.28-1.138-2.052-2.963.718-3.533h3.725v-3.875h-2.99l.256-2.051 2.279-2.621 4.445-2.961 4.215-.116 1.709 3.42-1.252 3.192-2.621.113-3.875-.799 4.558 5.698 6.495-.342 5.242-5.584-.227-6.266-4.103-5.357Z" style="fill:#bda867;fill-rule:nonzero" transform="matrix(.83473 0 0 .83473 -45.704 -354.793)"></path>
    <path d="m625.969 461.429-6.155-2.051-7.519 2.85-6.381 8.431-.342 4.444h-2.052v-3.077l7.863-14.244v-7.976l-9.496-16.785-9.117 16.708v7.977l7.863 14.244v3.076h-2.051l-.344-4.443-6.381-8.434-7.519-2.847-6.154 2.051-4.102 5.355-.228 6.268 5.242 5.584 6.494.341 4.56-5.697-3.875.797-2.621-.113-1.254-3.192 1.709-3.418 4.217.114 4.444 2.962 2.279 2.622.258 2.05h-2.993v3.875h3.727l.719 3.534-2.053 2.962-2.279 1.139-3.305-1.025 1.254-3.989-4.443 1.483-1.368 3.76 2.049 4.898 4.559 1.596 3.988-2.963 2.395-4.33 1.252-5.356-.069-1.709h1.893v5.243l-6.496 10.027 7.902 15.014v.218l.059-.107.015.031v-.064l7.903-15.016-6.496-10.027v-5.242h1.894l-.07 1.71 1.254 5.354 2.392 4.33 3.989 2.965 4.558-1.598 2.051-4.898-1.367-3.762-4.446-1.48 1.256 3.988-3.304 1.025-2.28-1.138-2.052-2.963.718-3.533h3.725v-3.875h-2.99l.256-2.051 2.279-2.621 4.445-2.961 4.215-.116 1.709 3.42-1.252 3.192-2.621.113-3.875-.799 4.558 5.698 6.495-.342 5.242-5.584-.227-6.266-4.103-5.357Z" style="fill:#bda867;fill-rule:nonzero" transform="matrix(.83473 0 0 .83473 -139.925 -251.329)"></path>
    <path d="m625.969 461.429-6.155-2.051-7.519 2.85-6.381 8.431-.342 4.444h-2.052v-3.077l7.863-14.244v-7.976l-9.496-16.785-9.117 16.708v7.977l7.863 14.244v3.076h-2.051l-.344-4.443-6.381-8.434-7.519-2.847-6.154 2.051-4.102 5.355-.228 6.268 5.242 5.584 6.494.341 4.56-5.697-3.875.797-2.621-.113-1.254-3.192 1.709-3.418 4.217.114 4.444 2.962 2.279 2.622.258 2.05h-2.993v3.875h3.727l.719 3.534-2.053 2.962-2.279 1.139-3.305-1.025 1.254-3.989-4.443 1.483-1.368 3.76 2.049 4.898 4.559 1.596 3.988-2.963 2.395-4.33 1.252-5.356-.069-1.709h1.893v5.243l-6.496 10.027 7.902 15.014v.218l.059-.107.015.031v-.064l7.903-15.016-6.496-10.027v-5.242h1.894l-.07 1.71 1.254 5.354 2.392 4.33 3.989 2.965 4.558-1.598 2.051-4.898-1.367-3.762-4.446-1.48 1.256 3.988-3.304 1.025-2.28-1.138-2.052-2.963.718-3.533h3.725v-3.875h-2.99l.256-2.051 2.279-2.621 4.445-2.961 4.215-.116 1.709 3.42-1.252 3.192-2.621.113-3.875-.799 4.558 5.698 6.495-.342 5.242-5.584-.227-6.266-4.103-5.357Z" style="fill:#bda867;fill-rule:nonzero" transform="matrix(.83473 0 0 .83473 -337.325 -246.816)"></path>
    <path d="m153.824 461.429-6.153-2.051-7.521 2.85-6.382 8.431-.342 4.444h-2.05v-3.077l7.862-14.244v-7.976l-9.496-16.785-9.117 16.708v7.977l7.863 14.244v3.076h-2.05l-.343-4.443-6.381-8.434-7.521-2.847-6.154 2.051-4.101 5.355-.229 6.268 5.242 5.584 6.495.341 4.56-5.697-3.875.797-2.622-.113-1.253-3.192 1.709-3.418 4.216.114 4.444 2.962 2.279 2.622.258 2.05h-2.992v3.875h3.725l.718 3.534-2.051 2.962-2.278 1.139-3.305-1.025 1.253-3.989-4.443 1.483-1.369 3.76 2.052 4.898 4.557 1.596 3.99-2.963 2.393-4.33 1.253-5.356-.069-1.709h1.892v5.243l-6.495 10.027 7.9 15.012.002.22.056-.109.019.033v-.066l7.901-15.014-6.495-10.027v-5.242h1.892l-.069 1.71 1.253 5.354 2.394 4.33 3.987 2.965 4.56-1.598 2.049-4.898-1.368-3.762-4.442-1.48 1.253 3.988-3.305 1.025-2.279-1.138-2.052-2.963.719-3.533h3.726v-3.875h-2.992l.258-2.051 2.278-2.621 4.444-2.961 4.215-.116 1.711 3.42-1.254 3.192-2.621.113-3.875-.799 4.558 5.698 6.497-.342 5.24-5.584-.227-6.266-4.102-5.357ZM389.896 461.429l-6.154-2.051-7.519 2.85-6.381 8.431-.342 4.444h-2.051v-3.077l7.862-14.244v-7.976l-9.497-16.785-9.117 16.708v7.977l7.864 14.244v3.076h-2.051l-.344-4.443-6.379-8.434-7.521-2.847-6.155 2.051-4.101 5.355-.229 6.268 5.242 5.584 6.495.341 4.56-5.697-3.875.797-2.623-.113-1.252-3.192 1.709-3.418 4.215.114 4.445 2.962 2.28 2.622.257 2.05h-2.992v3.875h3.725l.719 3.534-2.051 2.962-2.278 1.139-3.304-1.025 1.252-3.989-4.444 1.483-1.369 3.76 2.053 4.898 4.557 1.596 3.99-2.963 2.392-4.33 1.252-5.356-.068-1.709h1.893v5.243l-6.497 10.027 7.903 15.014v.218l.058-.107.016.031v-.064l7.902-15.016-6.494-10.027v-5.242h1.895l-.073 1.71 1.252 5.354 2.395 4.33 3.988 2.965 4.559-1.598 2.051-4.898-1.368-3.762-4.445-1.48 1.256 3.988-3.305 1.025-2.281-1.138-2.051-2.963.719-3.533h3.725v-3.875h-2.991l.256-2.051 2.28-2.621 4.445-2.961 4.217-.116 1.707 3.42-1.252 3.192-2.623.113-3.873-.799 4.558 5.698 6.494-.342 5.243-5.584-.229-6.266-4.102-5.357ZM625.969 461.429l-6.155-2.051-7.519 2.85-6.381 8.431-.342 4.444h-2.052v-3.077l7.863-14.244v-7.976l-9.496-16.785-9.117 16.708v7.977l7.863 14.244v3.076h-2.051l-.344-4.443-6.381-8.434-7.519-2.847-6.154 2.051-4.102 5.355-.228 6.268 5.242 5.584 6.494.341 4.56-5.697-3.875.797-2.621-.113-1.254-3.192 1.709-3.418 4.217.114 4.444 2.962 2.279 2.622.258 2.05h-2.993v3.875h3.727l.719 3.534-2.053 2.962-2.279 1.139-3.305-1.025 1.254-3.989-4.443 1.483-1.368 3.76 2.049 4.898 4.559 1.596 3.988-2.963 2.395-4.33 1.252-5.356-.069-1.709h1.893v5.243l-6.496 10.027 7.902 15.014v.218l.059-.107.015.031v-.064l7.903-15.016-6.496-10.027v-5.242h1.894l-.07 1.71 1.254 5.354 2.392 4.33 3.989 2.965 4.558-1.598 2.051-4.898-1.367-3.762-4.446-1.48 1.256 3.988-3.304 1.025-2.28-1.138-2.052-2.963.718-3.533h3.725v-3.875h-2.99l.256-2.051 2.279-2.621 4.445-2.961 4.215-.116 1.709 3.42-1.252 3.192-2.621.113-3.875-.799 4.558 5.698 6.495-.342 5.242-5.584-.227-6.266-4.103-5.357Z" style="fill:#bda867;fill-rule:nonzero" transform="matrix(.83473 0 0 .83473 -45.704 -137.439)"></path>
    <path d="m153.824 461.429-6.153-2.051-7.521 2.85-6.382 8.431-.342 4.444h-2.05v-3.077l7.862-14.244v-7.976l-9.496-16.785-9.117 16.708v7.977l7.863 14.244v3.076h-2.05l-.343-4.443-6.381-8.434-7.521-2.847-6.154 2.051-4.101 5.355-.229 6.268 5.242 5.584 6.495.341 4.56-5.697-3.875.797-2.622-.113-1.253-3.192 1.709-3.418 4.216.114 4.444 2.962 2.279 2.622.258 2.05h-2.992v3.875h3.725l.718 3.534-2.051 2.962-2.278 1.139-3.305-1.025 1.253-3.989-4.443 1.483-1.369 3.76 2.052 4.898 4.557 1.596 3.99-2.963 2.393-4.33 1.253-5.356-.069-1.709h1.892v5.243l-6.495 10.027 7.9 15.012.002.22.056-.109.019.033v-.066l7.901-15.014-6.495-10.027v-5.242h1.892l-.069 1.71 1.253 5.354 2.394 4.33 3.987 2.965 4.56-1.598 2.049-4.898-1.368-3.762-4.442-1.48 1.253 3.988-3.305 1.025-2.279-1.138-2.052-2.963.719-3.533h3.726v-3.875h-2.992l.258-2.051 2.278-2.621 4.444-2.961 4.215-.116 1.711 3.42-1.254 3.192-2.621.113-3.875-.799 4.558 5.698 6.497-.342 5.24-5.584-.227-6.266-4.102-5.357ZM389.896 461.429l-6.154-2.051-7.519 2.85-6.381 8.431-.342 4.444h-2.051v-3.077l7.862-14.244v-7.976l-9.497-16.785-9.117 16.708v7.977l7.864 14.244v3.076h-2.051l-.344-4.443-6.379-8.434-7.521-2.847-6.155 2.051-4.101 5.355-.229 6.268 5.242 5.584 6.495.341 4.56-5.697-3.875.797-2.623-.113-1.252-3.192 1.709-3.418 4.215.114 4.445 2.962 2.28 2.622.257 2.05h-2.992v3.875h3.725l.719 3.534-2.051 2.962-2.278 1.139-3.304-1.025 1.252-3.989-4.444 1.483-1.369 3.76 2.053 4.898 4.557 1.596 3.99-2.963 2.392-4.33 1.252-5.356-.068-1.709h1.893v5.243l-6.497 10.027 7.903 15.014v.218l.058-.107.016.031v-.064l7.902-15.016-6.494-10.027v-5.242h1.895l-.073 1.71 1.252 5.354 2.395 4.33 3.988 2.965 4.559-1.598 2.051-4.898-1.368-3.762-4.445-1.48 1.256 3.988-3.305 1.025-2.281-1.138-2.051-2.963.719-3.533h3.725v-3.875h-2.991l.256-2.051 2.28-2.621 4.445-2.961 4.217-.116 1.707 3.42-1.252 3.192-2.623.113-3.873-.799 4.558 5.698 6.494-.342 5.243-5.584-.229-6.266-4.102-5.357ZM625.969 461.429l-6.155-2.051-7.519 2.85-6.381 8.431-.342 4.444h-2.052v-3.077l7.863-14.244v-7.976l-9.496-16.785-9.117 16.708v7.977l7.863 14.244v3.076h-2.051l-.344-4.443-6.381-8.434-7.519-2.847-6.154 2.051-4.102 5.355-.228 6.268 5.242 5.584 6.494.341 4.56-5.697-3.875.797-2.621-.113-1.254-3.192 1.709-3.418 4.217.114 4.444 2.962 2.279 2.622.258 2.05h-2.993v3.875h3.727l.719 3.534-2.053 2.962-2.279 1.139-3.305-1.025 1.254-3.989-4.443 1.483-1.368 3.76 2.049 4.898 4.559 1.596 3.988-2.963 2.395-4.33 1.252-5.356-.069-1.709h1.893v5.243l-6.496 10.027 7.902 15.014v.218l.059-.107.015.031v-.064l7.903-15.016-6.496-10.027v-5.242h1.894l-.07 1.71 1.254 5.354 2.392 4.33 3.989 2.965 4.558-1.598 2.051-4.898-1.367-3.762-4.446-1.48 1.256 3.988-3.304 1.025-2.28-1.138-2.052-2.963.718-3.533h3.725v-3.875h-2.99l.256-2.051 2.279-2.621 4.445-2.961 4.215-.116 1.709 3.42-1.252 3.192-2.621.113-3.875-.799 4.558 5.698 6.495-.342 5.242-5.584-.227-6.266-4.103-5.357Z" style="fill:#bda867;fill-rule:nonzero" transform="matrix(.83473 0 0 .83473 -45.704 77.936)"></path>
    <path d="m625.969 461.429-6.155-2.051-7.519 2.85-6.381 8.431-.342 4.444h-2.052v-3.077l7.863-14.244v-7.976l-9.496-16.785-9.117 16.708v7.977l7.863 14.244v3.076h-2.051l-.344-4.443-6.381-8.434-7.519-2.847-6.154 2.051-4.102 5.355-.228 6.268 5.242 5.584 6.494.341 4.56-5.697-3.875.797-2.621-.113-1.254-3.192 1.709-3.418 4.217.114 4.444 2.962 2.279 2.622.258 2.05h-2.993v3.875h3.727l.719 3.534-2.053 2.962-2.279 1.139-3.305-1.025 1.254-3.989-4.443 1.483-1.368 3.76 2.049 4.898 4.559 1.596 3.988-2.963 2.395-4.33 1.252-5.356-.069-1.709h1.893v5.243l-6.496 10.027 7.902 15.014v.218l.059-.107.015.031v-.064l7.903-15.016-6.496-10.027v-5.242h1.894l-.07 1.71 1.254 5.354 2.392 4.33 3.989 2.965 4.558-1.598 2.051-4.898-1.367-3.762-4.446-1.48 1.256 3.988-3.304 1.025-2.28-1.138-2.052-2.963.718-3.533h3.725v-3.875h-2.99l.256-2.051 2.279-2.621 4.445-2.961 4.215-.116 1.709 3.42-1.252 3.192-2.621.113-3.875-.799 4.558 5.698 6.495-.342 5.242-5.584-.227-6.266-4.103-5.357Z" style="fill:#bda867;fill-rule:nonzero" transform="matrix(.83473 0 0 .83473 -139.925 -33.974)"></path><path d="m625.969 461.429-6.155-2.051-7.519 2.85-6.381 8.431-.342 4.444h-2.052v-3.077l7.863-14.244v-7.976l-9.496-16.785-9.117 16.708v7.977l7.863 14.244v3.076h-2.051l-.344-4.443-6.381-8.434-7.519-2.847-6.154 2.051-4.102 5.355-.228 6.268 5.242 5.584 6.494.341 4.56-5.697-3.875.797-2.621-.113-1.254-3.192 1.709-3.418 4.217.114 4.444 2.962 2.279 2.622.258 2.05h-2.993v3.875h3.727l.719 3.534-2.053 2.962-2.279 1.139-3.305-1.025 1.254-3.989-4.443 1.483-1.368 3.76 2.049 4.898 4.559 1.596 3.988-2.963 2.395-4.33 1.252-5.356-.069-1.709h1.893v5.243l-6.496 10.027 7.902 15.014v.218l.059-.107.015.031v-.064l7.903-15.016-6.496-10.027v-5.242h1.894l-.07 1.71 1.254 5.354 2.392 4.33 3.989 2.965 4.558-1.598 2.051-4.898-1.367-3.762-4.446-1.48 1.256 3.988-3.304 1.025-2.28-1.138-2.052-2.963.718-3.533h3.725v-3.875h-2.99l.256-2.051 2.279-2.621 4.445-2.961 4.215-.116 1.709 3.42-1.252 3.192-2.621.113-3.875-.799 4.558 5.698 6.495-.342 5.242-5.584-.227-6.266-4.103-5.357Z" style="fill:#bda867;fill-rule:nonzero" transform="matrix(.83473 0 0 .83473 -337.325 -29.461)"></path>
</svg>