<svg width="965" height="151" viewBox="0 0 965 151" fill="none" xmlns="http://www.w3.org/2000/svg">
<path d="M20.528 120.84C17.712 120.84 15.408 120.413 13.616 119.56C11.824 118.707 10.5013 117.725 9.648 116.616C8.88 115.507 8.496 114.611 8.496 113.928C8.496 111.88 9.008 110.472 10.032 109.704C11.056 108.936 13.1893 108.552 16.432 108.552C18.3093 108.552 20.912 108.211 24.24 107.528C27.6533 106.76 31.408 105.693 35.504 104.328C39.6 102.877 43.7813 101.128 48.048 99.08C52.3147 97.032 56.2827 94.6853 59.952 92.04C63.6213 89.3947 66.6933 86.4933 69.168 83.336C71.728 80.0933 73.3493 76.6373 74.032 72.968C71.5573 72.456 69.04 72.1147 66.48 71.944C64.0053 71.688 61.5307 71.56 59.056 71.56C51.5467 71.56 43.9093 72.3707 36.144 73.992C28.3787 75.528 20.528 77.2773 12.592 79.24C12.336 81.6293 12.1227 83.8053 11.952 85.768C11.7813 87.7307 11.6533 89.8213 11.568 92.04C11.312 97.5013 10.672 101.128 9.648 102.92C8.70933 104.627 7.64267 105.48 6.448 105.48C4.57067 105.48 3.12 104.371 2.096 102.152C1.072 99.9333 0.560001 96.392 0.560001 91.528C0.560001 75.9973 2.096 62.6 5.168 51.336C8.24 40.072 12.8053 31.4107 18.864 25.352C24.9227 19.2933 32.3467 16.264 41.136 16.264C47.3653 16.264 52.1867 17.928 55.6 21.256C59.0987 24.584 60.848 29.4053 60.848 35.72C60.848 40.072 60.08 44.5947 58.544 49.288C57.008 53.896 54.7467 58.12 51.76 61.96C54.064 61.5333 56.3253 61.2347 58.544 61.064C60.7627 60.808 62.8107 60.68 64.688 60.68C71.1733 60.68 76.208 61.7467 79.792 63.88C83.376 66.0133 85.168 69.1707 85.168 73.352C85.168 78.216 83.8027 82.7813 81.072 87.048C78.4267 91.3147 74.8853 95.1973 70.448 98.696C66.096 102.195 61.36 105.352 56.24 108.168C51.12 110.899 46.128 113.203 41.264 115.08C36.4 116.957 32.0907 118.365 28.336 119.304C24.6667 120.328 22.064 120.84 20.528 120.84ZM13.744 68.232C23.216 66.5253 30.5547 64.264 35.76 61.448C40.9653 58.632 44.592 55.3467 46.64 51.592C48.688 47.752 49.712 43.4427 49.712 38.664C49.712 37.128 49.456 35.5493 48.944 33.928C48.432 32.2213 47.4507 30.7707 46 29.576C44.5493 28.3813 42.4587 27.784 39.728 27.784C32.7307 27.784 27.0987 30.984 22.832 37.384C18.6507 43.784 15.6213 54.0667 13.744 68.232ZM128.396 122.12C121.825 122.12 116.663 119.987 112.908 115.72C109.239 111.368 107.404 105.309 107.404 97.544C107.404 92.7653 108.044 87.176 109.324 80.776C110.689 74.2907 112.396 67.464 114.444 60.296C116.577 53.0427 118.881 45.8747 121.356 38.792C123.831 31.7093 126.22 25.1387 128.524 19.08C130.913 12.936 133.004 7.816 134.796 3.71999C135.82 1.41599 137.271 0.263992 139.148 0.263992C141.708 0.263992 142.988 1.84266 142.988 4.99999C142.988 6.02399 142.519 8.11466 141.58 11.272C140.641 14.4293 139.404 18.3547 137.868 23.048C136.332 27.656 134.668 32.776 132.876 38.408C131.084 44.04 129.249 49.8427 127.372 55.816C125.58 61.704 123.916 67.5493 122.38 73.352C120.844 79.0693 119.607 84.4453 118.668 89.48C117.729 94.5147 117.26 98.824 117.26 102.408C117.26 104.712 117.857 106.547 119.052 107.912C120.332 109.192 122.039 109.832 124.172 109.832C128.097 109.832 132.023 109.064 135.948 107.528C139.959 105.907 143.799 103.944 147.468 101.64C151.137 99.2507 154.465 96.904 157.452 94.6C160.524 92.2107 163.127 90.248 165.26 88.712C167.393 87.0907 168.887 86.28 169.74 86.28C171.617 86.28 172.556 87.304 172.556 89.352C172.556 90.0347 171.873 91.3147 170.508 93.192C169.143 94.984 167.308 97.1173 165.004 99.592C162.7 102.067 160.012 104.627 156.94 107.272C153.953 109.832 150.796 112.264 147.468 114.568C144.225 116.787 140.94 118.579 137.612 119.944C134.369 121.395 131.297 122.12 128.396 122.12ZM182.353 118.28C177.318 118.28 173.35 116.36 170.449 112.52C167.548 108.68 166.097 103.688 166.097 97.544C166.097 95.3253 166.396 92.9787 166.993 90.504C167.676 87.944 168.529 85.64 169.553 83.592C168.956 82.9947 168.486 82.184 168.145 81.16C167.804 80.0507 167.633 78.6853 167.633 77.064C167.633 72.0293 168.486 67.4213 170.193 63.24C171.9 59.0587 174.161 55.432 176.977 52.36C179.793 49.2027 182.908 46.7707 186.321 45.064C189.82 43.3573 193.361 42.504 196.945 42.504C202.833 42.504 207.612 44.6373 211.281 48.904C214.95 53.0853 216.785 59.4853 216.785 68.104C216.785 72.6267 216.102 77.2347 214.737 81.928C213.457 86.6213 211.665 91.144 209.361 95.496C207.142 99.848 204.54 103.731 201.553 107.144C198.652 110.557 195.537 113.288 192.209 115.336C188.966 117.299 185.681 118.28 182.353 118.28ZM178.001 79.24C178.513 79.9227 178.769 80.8187 178.769 81.928C178.769 83.208 178.513 84.488 178.001 85.768C177.574 87.048 177.105 88.7973 176.593 91.016C176.081 93.2347 175.825 96.392 175.825 100.488C175.825 104.584 177.446 106.632 180.689 106.632C184.273 106.632 187.601 105.224 190.673 102.408C193.745 99.5067 196.476 95.7947 198.865 91.272C201.254 86.7493 203.089 81.928 204.369 76.808C205.734 71.6027 206.417 66.696 206.417 62.088C206.417 59.1013 205.862 57.0107 204.753 55.816C203.644 54.536 201.638 53.896 198.737 53.896C195.75 53.896 192.636 54.92 189.393 56.968C186.236 58.9307 183.59 61.6187 181.457 65.032C179.324 68.4453 178.257 72.2853 178.257 76.552C178.257 77.4907 178.172 78.3867 178.001 79.24ZM238.95 150.792C232.379 150.792 227.558 150.152 224.486 148.872C221.414 147.592 219.878 145.885 219.878 143.752C219.878 142.387 220.305 141.277 221.158 140.424C222.097 139.571 223.249 139.144 224.614 139.144C226.065 139.144 228.155 139.357 230.886 139.784C233.617 140.296 236.305 140.552 238.95 140.552C247.739 140.552 254.95 137.949 260.582 132.744C266.214 127.539 270.523 119.56 273.51 108.808C276.497 97.9707 278.502 84.1467 279.526 67.336C276.966 72.5413 274.065 77.7467 270.822 82.952C267.665 88.072 264.251 92.7653 260.582 97.032C256.998 101.213 253.286 104.584 249.446 107.144C245.606 109.704 241.809 110.984 238.054 110.984C234.47 110.984 231.825 110.088 230.118 108.296C228.497 106.504 227.686 103.56 227.686 99.464C227.686 95.7947 228.71 91.912 230.758 87.816C232.806 83.6347 235.537 79.4533 238.95 75.272C242.363 71.0907 246.118 67.1227 250.214 63.368C254.31 59.528 258.406 56.1573 262.502 53.256C266.683 50.2693 270.566 47.9227 274.15 46.216C277.734 44.5093 280.635 43.656 282.854 43.656C285.073 43.656 286.779 44.424 287.974 45.96C289.169 47.496 289.766 50.3973 289.766 54.664C289.766 64.648 289.425 74.376 288.742 83.848C288.145 93.2347 286.907 101.981 285.03 110.088C283.153 118.195 280.337 125.277 276.582 131.336C272.913 137.48 268.006 142.259 261.862 145.672C255.718 149.085 248.081 150.792 238.95 150.792ZM277.222 54.792C272.955 57.5227 268.561 60.5947 264.038 64.008C259.515 67.4213 255.291 71.048 251.366 74.888C247.526 78.728 244.411 82.696 242.022 86.792C239.633 90.888 238.438 94.984 238.438 99.08C238.438 100.36 239.249 101 240.87 101C242.15 101 243.899 100.019 246.118 98.056C248.422 96.008 250.982 93.32 253.798 89.992C256.614 86.5787 259.473 82.8667 262.374 78.856C265.361 74.76 268.134 70.6213 270.694 66.44C273.254 62.2587 275.43 58.376 277.222 54.792ZM430.026 52.616C432.33 47.0693 434.506 41.352 436.554 35.464C438.687 29.576 440.607 23.56 442.314 17.416C442.826 15.7093 443.594 14.344 444.618 13.32C445.727 12.2107 447.007 11.656 448.458 11.656C449.482 11.656 450.335 12.04 451.018 12.808C451.786 13.576 452.17 14.6 452.17 15.88C452.17 17.5013 451.53 20.3173 450.25 24.328C449.055 28.3387 447.519 33.416 445.642 39.56C443.85 45.704 442.015 52.7867 440.138 60.808C438.346 68.744 436.81 77.5333 435.53 87.176C434.335 96.8187 433.738 107.101 433.738 118.024C433.738 120.413 433.226 122.376 432.202 123.912C431.178 125.533 429.941 126.344 428.49 126.344C427.637 126.344 426.826 126.131 426.058 125.704C425.29 125.277 424.607 124.253 424.01 122.632C423.498 121.096 423.071 118.664 422.73 115.336C422.389 111.923 422.218 107.315 422.218 101.512C422.218 97.0747 422.474 92.2533 422.986 87.048C419.061 94.1307 414.794 100.317 410.186 105.608C405.663 110.813 401.269 114.824 397.002 117.64C392.821 120.456 389.237 121.864 386.25 121.864C382.581 121.864 379.594 120.627 377.29 118.152C375.071 115.763 373.962 112.179 373.962 107.4C373.962 103.219 374.943 98.9093 376.906 94.472C378.869 90.0347 381.471 85.6827 384.714 81.416C387.957 77.064 391.541 72.968 395.466 69.128C399.391 65.288 403.317 61.9173 407.242 59.016C411.253 56.0293 414.965 53.7253 418.378 52.104C421.791 50.3973 424.565 49.544 426.698 49.544C427.551 49.544 428.319 49.8427 429.002 50.44C429.685 51.0373 430.026 51.7627 430.026 52.616ZM428.362 56.584C427.765 57.1813 427.039 57.7787 426.186 58.376C425.333 58.9733 424.394 59.6133 423.37 60.296C419.615 62.9413 415.477 66.0133 410.954 69.512C406.517 72.9253 402.25 76.68 398.154 80.776C394.143 84.7867 390.858 89.0107 388.298 93.448C385.738 97.8853 384.458 102.451 384.458 107.144C384.458 109.192 385.482 110.216 387.53 110.216C390.346 110.216 393.418 108.893 396.746 106.248C400.159 103.517 403.658 99.7627 407.242 94.984C410.826 90.12 414.41 84.4453 417.994 77.96C421.578 71.3893 425.034 64.264 428.362 56.584ZM509.241 61.832C509.241 64.5627 508.388 67.2507 506.681 69.896C504.974 72.456 502.713 74.9307 499.897 77.32C497.081 79.624 493.966 81.8 490.553 83.848C487.14 85.896 483.726 87.688 480.313 89.224C476.9 90.76 473.785 91.9973 470.969 92.936C470.286 96.264 469.945 99.208 469.945 101.768C469.945 103.389 470.329 104.541 471.097 105.224C471.865 105.907 473.06 106.248 474.681 106.248C478.265 106.248 482.062 105.608 486.073 104.328C490.084 103.048 494.18 101.384 498.361 99.336C502.542 97.288 506.553 95.112 510.393 92.808C514.233 90.504 517.732 88.328 520.889 86.28C524.132 84.232 526.82 82.568 528.953 81.288C531.086 80.008 532.494 79.368 533.177 79.368C534.201 79.368 534.969 79.7093 535.481 80.392C536.078 80.9893 536.377 81.7147 536.377 82.568C536.377 83.2507 535.31 84.5733 533.177 86.536C531.129 88.4987 528.356 90.8027 524.857 93.448C521.358 96.008 517.433 98.6533 513.081 101.384C508.729 104.115 504.206 106.675 499.513 109.064C494.905 111.453 490.425 113.373 486.073 114.824C481.806 116.275 477.966 117 474.553 117C470.116 117 466.66 115.336 464.185 112.008C461.71 108.68 460.473 103.517 460.473 96.52C460.473 91.8267 461.07 87.0907 462.265 82.312C463.545 77.5333 465.252 72.968 467.385 68.616C469.604 64.1787 472.036 60.2533 474.681 56.84C477.412 53.3413 480.27 50.6107 483.257 48.648C486.244 46.6 489.145 45.576 491.961 45.576C497.337 45.576 501.561 47.0693 504.633 50.056C507.705 53.0427 509.241 56.968 509.241 61.832ZM473.657 83.08C476.302 81.4587 479.033 79.752 481.849 77.96C484.665 76.168 487.268 74.3333 489.657 72.456C492.046 70.5787 493.966 68.616 495.417 66.568C496.953 64.4347 497.721 62.2587 497.721 60.04C497.721 56.8827 496.014 55.304 492.601 55.304C490.468 55.304 488.206 56.6693 485.817 59.4C483.513 62.0453 481.294 65.5013 479.161 69.768C477.028 74.0347 475.193 78.472 473.657 83.08ZM606.461 119.816C604.584 119.816 603.133 119.261 602.109 118.152C601.17 117.128 600.701 115.933 600.701 114.568C600.701 113.373 601.213 112.264 602.237 111.24C603.346 110.131 604.84 109.149 606.717 108.296C610.13 106.504 613.33 104.712 616.317 102.92C619.389 101.128 621.864 99.208 623.741 97.16C625.618 95.112 626.557 92.936 626.557 90.632C626.557 88.6693 625.917 87.176 624.637 86.152C623.357 85.0427 621.608 84.488 619.389 84.488C618.109 84.488 616.317 84.744 614.013 85.256C611.709 85.6827 609.192 86.1947 606.461 86.792C603.816 87.304 601.213 87.816 598.653 88.328C596.093 88.7547 593.917 88.968 592.125 88.968C588.882 88.968 586.45 88.2 584.829 86.664C583.208 85.0427 582.397 82.8667 582.397 80.136C582.397 78.7707 583.208 76.7227 584.829 73.992C586.45 71.2613 588.584 68.232 591.229 64.904C593.96 61.4907 596.946 58.0773 600.189 54.664C603.432 51.2507 606.717 48.0933 610.045 45.192C613.458 42.2907 616.616 39.944 619.517 38.152C622.504 36.36 624.978 35.464 626.941 35.464C628.904 35.464 630.397 36.104 631.421 37.384C632.445 38.664 632.957 40.2853 632.957 42.248C632.957 43.784 632.701 45.1067 632.189 46.216C631.677 47.24 630.61 48.0507 628.989 48.648C627.453 49.2453 625.064 49.5867 621.821 49.672C618.493 52.3173 614.952 55.3467 611.197 58.76C607.528 62.088 604.157 65.544 601.085 69.128C598.098 72.6267 595.922 75.9973 594.557 79.24C597.373 78.3013 600.786 77.4907 604.797 76.808C608.893 76.04 613.032 75.656 617.213 75.656C623.784 75.656 628.648 77.1493 631.805 80.136C635.048 83.0373 636.669 86.8773 636.669 91.656C636.669 94.728 635.688 97.928 633.725 101.256C631.848 104.499 629.373 107.528 626.301 110.344C623.229 113.16 619.944 115.421 616.445 117.128C612.946 118.92 609.618 119.816 606.461 119.816ZM641.699 76.04C639.395 75.8693 638.328 74.376 638.499 71.56C638.584 70.8773 639.054 70.0667 639.907 69.128C640.76 68.104 641.742 67.5493 642.851 67.464C645.496 67.208 648.739 66.824 652.579 66.312C656.504 65.7147 660.814 65.032 665.507 64.264C666.36 60.0827 667.384 55.688 668.579 51.08C669.774 46.472 671.096 41.992 672.547 37.64C673.998 33.2027 675.534 29.192 677.155 25.608C678.776 22.024 680.483 19.208 682.275 17.16C683.214 16.2213 684.067 15.5813 684.835 15.24C685.603 14.8133 686.286 14.6 686.883 14.6C688.078 14.6 689.016 15.112 689.699 16.136C690.467 17.16 690.851 18.312 690.851 19.592C690.851 20.2747 690.723 20.9573 690.467 21.64C688.76 26.4187 686.926 32.3067 684.963 39.304C683 46.3013 680.91 53.9387 678.691 62.216C686.542 60.936 694.392 59.5707 702.243 58.12C710.094 56.6693 716.835 55.3467 722.467 54.152C724.088 53.4693 725.326 53.5973 726.179 54.536C727.118 55.4747 727.587 56.4133 727.587 57.352C727.587 58.5467 727.246 59.4427 726.563 60.04C725.966 60.6373 725.326 61.1493 724.643 61.576L724.515 61.704C722.808 62.3867 720.248 63.1973 716.835 64.136C713.422 64.9893 709.496 65.928 705.059 66.952C700.622 67.8907 695.886 68.8293 690.851 69.768C685.902 70.7067 680.995 71.56 676.131 72.328C674.168 79.8373 672.163 87.56 670.115 95.496C668.152 103.347 666.19 111.069 664.227 118.664C663.374 121.736 662.392 123.656 661.283 124.424C660.259 125.277 659.15 125.704 657.955 125.704C656.59 125.704 655.395 125.192 654.371 124.168C653.432 123.144 653.304 121.053 653.987 117.896L663.331 74.248C658.211 75.016 653.688 75.5707 649.763 75.912C645.923 76.2533 643.235 76.296 641.699 76.04ZM719.67 120.328C716.427 120.328 713.739 118.835 711.606 115.848C709.558 112.776 708.534 108.808 708.534 103.944C708.534 99.4213 709.643 94.9413 711.862 90.504C714.166 86.0667 717.195 81.8 720.95 77.704C724.705 73.608 728.801 69.8533 733.238 66.44C737.675 62.9413 742.113 59.912 746.55 57.352C751.073 54.792 755.211 52.7867 758.966 51.336C762.721 49.8853 765.707 49.16 767.926 49.16C769.121 49.16 770.102 49.416 770.87 49.928C771.638 50.3547 772.022 51.1653 772.022 52.36C772.022 53.128 771.723 53.8533 771.126 54.536C771.211 54.536 771.297 54.536 771.382 54.536C773.259 54.536 774.198 55.6453 774.198 57.864C774.198 58.632 773.899 60.2107 773.302 62.6C772.705 64.904 772.022 67.8053 771.254 71.304C770.486 74.8027 769.803 78.6853 769.206 82.952C768.609 87.1333 768.31 91.4 768.31 95.752C768.31 99.4213 769.718 101.256 772.534 101.256C775.691 101.256 778.891 100.531 782.134 99.08C785.377 97.6293 788.534 95.88 791.606 93.832C794.678 91.6987 797.494 89.608 800.054 87.56C802.614 85.4267 804.79 83.6347 806.582 82.184C808.374 80.7333 809.654 80.008 810.422 80.008C811.105 80.008 811.702 80.2213 812.214 80.648C812.726 81.0747 812.982 81.7573 812.982 82.696C812.982 83.5493 812.129 85.0853 810.422 87.304C808.715 89.5227 806.454 92.04 803.638 94.856C800.822 97.672 797.665 100.403 794.166 103.048C790.667 105.693 787.083 107.869 783.414 109.576C779.745 111.283 776.246 112.136 772.918 112.136C770.358 112.136 768.011 111.368 765.878 109.832C763.83 108.211 762.166 105.48 760.886 101.64C759.691 97.8 759.094 92.5093 759.094 85.768V82.568C754.913 89.48 750.518 95.7947 745.91 101.512C741.387 107.229 736.865 111.795 732.342 115.208C727.905 118.621 723.681 120.328 719.67 120.328ZM765.494 58.376C765.067 58.5467 764.47 58.8027 763.702 59.144C759.777 60.936 755.681 63.1547 751.414 65.8C747.233 68.4453 743.137 71.3893 739.126 74.632C735.201 77.8747 731.659 81.2453 728.502 84.744C725.345 88.2427 722.827 91.784 720.95 95.368C719.073 98.952 718.134 102.451 718.134 105.864C718.134 106.973 718.347 107.827 718.774 108.424C719.286 109.021 720.139 109.32 721.334 109.32C723.041 109.32 725.259 108.253 727.99 106.12C730.721 103.901 733.707 101 736.95 97.416C740.278 93.832 743.606 89.864 746.934 85.512C750.262 81.16 753.419 76.7653 756.406 72.328C759.478 67.8907 762.123 63.7947 764.342 60.04C764.683 59.4427 765.067 58.888 765.494 58.376ZM813.325 150.792C806.754 150.792 801.933 150.152 798.861 148.872C795.789 147.592 794.253 145.885 794.253 143.752C794.253 142.387 794.68 141.277 795.533 140.424C796.472 139.571 797.624 139.144 798.989 139.144C800.44 139.144 802.53 139.357 805.261 139.784C807.992 140.296 810.68 140.552 813.325 140.552C822.114 140.552 829.325 137.949 834.957 132.744C840.589 127.539 844.898 119.56 847.885 108.808C850.872 97.9707 852.877 84.1467 853.901 67.336C851.341 72.5413 848.44 77.7467 845.197 82.952C842.04 88.072 838.626 92.7653 834.957 97.032C831.373 101.213 827.661 104.584 823.821 107.144C819.981 109.704 816.184 110.984 812.429 110.984C808.845 110.984 806.2 110.088 804.493 108.296C802.872 106.504 802.061 103.56 802.061 99.464C802.061 95.7947 803.085 91.912 805.133 87.816C807.181 83.6347 809.912 79.4533 813.325 75.272C816.738 71.0907 820.493 67.1227 824.589 63.368C828.685 59.528 832.781 56.1573 836.877 53.256C841.058 50.2693 844.941 47.9227 848.525 46.216C852.109 44.5093 855.01 43.656 857.229 43.656C859.448 43.656 861.154 44.424 862.349 45.96C863.544 47.496 864.141 50.3973 864.141 54.664C864.141 64.648 863.8 74.376 863.117 83.848C862.52 93.2347 861.282 101.981 859.405 110.088C857.528 118.195 854.712 125.277 850.957 131.336C847.288 137.48 842.381 142.259 836.237 145.672C830.093 149.085 822.456 150.792 813.325 150.792ZM851.597 54.792C847.33 57.5227 842.936 60.5947 838.413 64.008C833.89 67.4213 829.666 71.048 825.741 74.888C821.901 78.728 818.786 82.696 816.397 86.792C814.008 90.888 812.813 94.984 812.813 99.08C812.813 100.36 813.624 101 815.245 101C816.525 101 818.274 100.019 820.493 98.056C822.797 96.008 825.357 93.32 828.173 89.992C830.989 86.5787 833.848 82.8667 836.749 78.856C839.736 74.76 842.509 70.6213 845.069 66.44C847.629 62.2587 849.805 58.376 851.597 54.792ZM937.741 61.832C937.741 64.5627 936.888 67.2507 935.181 69.896C933.474 72.456 931.213 74.9307 928.397 77.32C925.581 79.624 922.466 81.8 919.053 83.848C915.64 85.896 912.226 87.688 908.813 89.224C905.4 90.76 902.285 91.9973 899.469 92.936C898.786 96.264 898.445 99.208 898.445 101.768C898.445 103.389 898.829 104.541 899.597 105.224C900.365 105.907 901.56 106.248 903.181 106.248C906.765 106.248 910.562 105.608 914.573 104.328C918.584 103.048 922.68 101.384 926.861 99.336C931.042 97.288 935.053 95.112 938.893 92.808C942.733 90.504 946.232 88.328 949.389 86.28C952.632 84.232 955.32 82.568 957.453 81.288C959.586 80.008 960.994 79.368 961.677 79.368C962.701 79.368 963.469 79.7093 963.981 80.392C964.578 80.9893 964.877 81.7147 964.877 82.568C964.877 83.2507 963.81 84.5733 961.677 86.536C959.629 88.4987 956.856 90.8027 953.357 93.448C949.858 96.008 945.933 98.6533 941.581 101.384C937.229 104.115 932.706 106.675 928.013 109.064C923.405 111.453 918.925 113.373 914.573 114.824C910.306 116.275 906.466 117 903.053 117C898.616 117 895.16 115.336 892.685 112.008C890.21 108.68 888.973 103.517 888.973 96.52C888.973 91.8267 889.57 87.0907 890.765 82.312C892.045 77.5333 893.752 72.968 895.885 68.616C898.104 64.1787 900.536 60.2533 903.181 56.84C905.912 53.3413 908.77 50.6107 911.757 48.648C914.744 46.6 917.645 45.576 920.461 45.576C925.837 45.576 930.061 47.0693 933.133 50.056C936.205 53.0427 937.741 56.968 937.741 61.832ZM902.157 83.08C904.802 81.4587 907.533 79.752 910.349 77.96C913.165 76.168 915.768 74.3333 918.157 72.456C920.546 70.5787 922.466 68.616 923.917 66.568C925.453 64.4347 926.221 62.2587 926.221 60.04C926.221 56.8827 924.514 55.304 921.101 55.304C918.968 55.304 916.706 56.6693 914.317 59.4C912.013 62.0453 909.794 65.5013 907.661 69.768C905.528 74.0347 903.693 78.472 902.157 83.08Z" fill="white"/>
</svg>
