<svg width="256" height="256" viewBox="0 0 256 256" fill="none" xmlns="http://www.w3.org/2000/svg">
<path d="M212 76H32C28.8174 76 25.7652 77.2643 23.5147 79.5147C21.2643 81.7652 20 84.8174 20 88V136C20.0376 161.222 29.5822 185.503 46.73 204H32C28.8174 204 25.7652 205.264 23.5147 207.515C21.2643 209.765 20 212.817 20 216C20 219.183 21.2643 222.235 23.5147 224.485C25.7652 226.736 28.8174 228 32 228H208C211.183 228 214.235 226.736 216.485 224.485C218.736 222.235 220 219.183 220 216C220 212.817 218.736 209.765 216.485 207.515C214.235 205.264 211.183 204 208 204H193.27C201.892 194.687 208.677 183.831 213.27 172C224.718 171.669 235.586 166.888 243.565 158.672C251.544 150.456 256.005 139.453 256 128V120C255.987 108.335 251.347 97.1507 243.098 88.9019C234.849 80.6532 223.665 76.0132 212 76ZM196 136C195.975 150.11 192.035 163.937 184.62 175.942C177.206 187.947 166.606 197.66 154 204H86C73.3942 197.66 62.7944 187.947 55.3795 175.942C47.9646 163.937 44.0254 150.11 44 136V100H196V136ZM232 128C231.996 131.994 230.797 135.895 228.557 139.201C226.317 142.507 223.138 145.066 219.43 146.55C219.812 143.046 220.002 139.524 220 136V101.68C223.565 103.236 226.599 105.798 228.73 109.052C230.862 112.305 231.998 116.11 232 120V128ZM68 48V24C68 20.8174 69.2643 17.7652 71.5147 15.5147C73.7652 13.2643 76.8174 12 80 12C83.1826 12 86.2348 13.2643 88.4853 15.5147C90.7357 17.7652 92 20.8174 92 24V48C92 51.1826 90.7357 54.2348 88.4853 56.4853C86.2348 58.7357 83.1826 60 80 60C76.8174 60 73.7652 58.7357 71.5147 56.4853C69.2643 54.2348 68 51.1826 68 48ZM108 48V24C108 20.8174 109.264 17.7652 111.515 15.5147C113.765 13.2643 116.817 12 120 12C123.183 12 126.235 13.2643 128.485 15.5147C130.736 17.7652 132 20.8174 132 24V48C132 51.1826 130.736 54.2348 128.485 56.4853C126.235 58.7357 123.183 60 120 60C116.817 60 113.765 58.7357 111.515 56.4853C109.264 54.2348 108 51.1826 108 48ZM148 48V24C148 20.8174 149.264 17.7652 151.515 15.5147C153.765 13.2643 156.817 12 160 12C163.183 12 166.235 13.2643 168.485 15.5147C170.736 17.7652 172 20.8174 172 24V48C172 51.1826 170.736 54.2348 168.485 56.4853C166.235 58.7357 163.183 60 160 60C156.817 60 153.765 58.7357 151.515 56.4853C149.264 54.2348 148 51.1826 148 48Z" fill="white"/>
</svg>
